<svg width="24" height="24" viewBox="0 0 24 24" fill="none" xmlns="http://www.w3.org/2000/svg">
<circle cx="12" cy="12" r="12" fill="#CCE8DA"/>
<path d="M16.4732 8.80657C16.4112 8.74409 16.3375 8.69449 16.2563 8.66065C16.175 8.6268 16.0879 8.60938 15.9999 8.60938C15.9119 8.60938 15.8247 8.6268 15.7435 8.66065C15.6623 8.69449 15.5885 8.74409 15.5266 8.80657L10.5599 13.7799L8.47322 11.6866C8.40887 11.6244 8.33291 11.5755 8.24967 11.5427C8.16644 11.5099 8.07755 11.4938 7.9881 11.4954C7.89865 11.4969 7.81037 11.5161 7.72832 11.5518C7.64627 11.5874 7.57204 11.6389 7.50989 11.7032C7.44773 11.7676 7.39885 11.8435 7.36605 11.9268C7.33324 12.01 7.31716 12.0989 7.31871 12.1884C7.32025 12.2778 7.3394 12.3661 7.37507 12.4481C7.41073 12.5302 7.4622 12.6044 7.52655 12.6666L10.0866 15.2266C10.1485 15.2891 10.2223 15.3387 10.3035 15.3725C10.3847 15.4063 10.4719 15.4238 10.5599 15.4238C10.6479 15.4238 10.735 15.4063 10.8163 15.3725C10.8975 15.3387 10.9712 15.2891 11.0332 15.2266L16.4732 9.78657C16.5409 9.72415 16.5949 9.64838 16.6318 9.56404C16.6688 9.47971 16.6878 9.38864 16.6878 9.29657C16.6878 9.20451 16.6688 9.11344 16.6318 9.0291C16.5949 8.94477 16.5409 8.869 16.4732 8.80657Z" fill="#008C4F"/>
</svg>
